inDegrees=yes
name=ik_MT_012005D6_009-001__orientations
DataType=double
version=3
OpenSimVersion=4.5
endheader
time	gndpitch	gndroll	gndyaw	spine_tx	spine_ty	spine_tz	pitch2	roll2	yaw2	aux7jnt_r3	aux7jnt_r1	aux7jnt_r2	aux6jnt_r3	aux6jnt_r1	aux6jnt_r2	aux5jnt_r3	aux5jnt_r1	aux5jnt_r2	aux4jnt_r3	aux4jnt_r1	aux4jnt_r2	aux3jnt_r3	aux3jnt_r1	aux3jnt_r2	pitch1	roll1	yaw1	aux1jnt_r3	aux1jnt_r1	aux1jnt_r2
7.509999999999884	4.21296440140691e-09	8.002416233845703e-10	4.440363815649541e-10	-3.97872216927308e-17	8.44526185968539e-17	-7.30666612219483e-19	-0.5749575604625039	0.5753992401521763	-0.4712268347280311	-6.160279455423765	4.516604908679039	-5.075869439987978	-7.247369830159521	5.175971424288001	-5.912844455532649	-7.247369830159521	7.12107147809719	-5.912844455532649	-5.43552737261964	7.12107147809719	-5.912844455532649	-3.62368491507976	6.461723851722923	-2.537934719993989	0.4188361746188153	0.1045395104267717	-0.6632108534267621	13.34262848306692	2.994836369908943	-4.217917349587055
7.519999999999884	4.21296440140691e-09	8.002416233845703e-10	4.440363815649541e-10	-3.97872216927308e-17	8.44526185968539e-17	-7.30666612219483e-19	-0.5749348688046471	0.5754306773318131	-0.4712268277647632	-6.160036329733598	4.516851675288994	-5.075869364982408	-7.2470838006369	5.176254215665025	-5.91284436815919	-7.2470838006369	7.121460540834231	-5.91284436815919	-5.435312850477674	7.121460540834231	-5.91284436815919	-3.62354190031845	6.462076890724918	-2.537934682491204	0.4188360652319572	0.1045425042153012	-0.6632108436442518	13.34262499839128	2.994922135632688	-4.217917287371819
7.529999999999884	4.21296440140691e-09	8.002416233845703e-10	4.440363815649541e-10	-3.97872216927308e-17	8.44526185968539e-17	-7.30666612219483e-19	-0.5749145891129785	0.5754510573076548	-0.4712268243328342	-6.159819046621697	4.517011648213013	-5.075869328015022	-7.24682817407301	5.176437542588702	-5.912844325096146	-7.24682817407301	7.121712760952998	-5.912844325096146	-5.435121130554757	7.121712760952998	-5.912844325096146	-3.623414087036505	6.46230575751306	-2.537934664007511	0.4188360021603242	0.1045447147394173	-0.6632108385236588	13.34262298915375	2.994985462483867	-4.217917254805647
7.539999999999884	4.21296440140691e-09	8.002416233845703e-10	4.440363815649541e-10	-3.97872216927308e-17	8.44526185968539e-17	-7.30666612219483e-19	-0.5749259490568168	0.5754541103495713	-0.4712268256069637	-6.159940760698446	4.517035613111024	-5.075869341739441	-7.24697136675349	5.176465006055134	-5.912844341083624	-7.24697136675349	7.121750545030896	-5.912844341083624	-5.435228525065117	7.121750545030896	-5.912844341083624	-3.623485683376745	6.462340043122764	-2.537934670869721	0.4188359812338796	0.1045448850402032	-0.6632108407191208	13.34262232251177	2.994990341242011	-4.217917268768444
7.549999999999883	4.21296440140691e-09	8.002416233845703e-10	4.440363815649541e-10	-3.97872216927308e-17	8.44526185968539e-17	-7.30666612219483e-19	-0.574924459612792	0.5754411511676717	-0.4712268294564473	-6.159924802318111	4.516933889819618	-5.075869383204559	-7.246952592234407	5.17634843246498	-5.912844389386049	-7.246952592234407	7.121590163761392	-5.912844389386049	-5.435214444175807	7.121590163761392	-5.912844389386049	-3.623476296117203	6.462194511726583	-2.537934691602279	0.4188360560507689	0.1045438240059103	-0.6632108451730183	13.34262470591134	2.994959944848563	-4.217917297094535
7.559999999999883	4.21296440140691e-09	8.002416233845703e-10	4.440363815649541e-10	-3.97872216927308e-17	8.44526185968539e-17	-7.30666612219483e-19	-0.5749400728477477	0.5754287073689722	-0.47122683676341	-6.160092087518175	4.516836212036323	-5.075869461912276	-7.247149397869732	5.176236494975353	-5.912844481072113	-7.247149397869732	7.121436160812114	-5.912844481072113	-5.435362048402298	7.121436160812114	-5.912844481072113	-3.623574698934866	6.462054768075131	-2.537934730956138	0.4188361122967333	0.1045426206830041	-0.6632108551688212	13.34262649770739	2.994925472186601	-4.217917360666279
7.569999999999883	4.21296440140691e-09	8.002416233845703e-10	4.440363815649541e-10	-3.97872216927308e-17	8.44526185968539e-17	-7.30666612219483e-19	-0.5749758611210488	0.5754304355723012	-0.4712268377527404	-6.160475534540916	4.516849777594102	-5.075869472568952	-7.247600510908381	5.176252040930963	-5.912844493485998	-7.247600510908381	7.121457548847721	-5.912844493485998	-5.435700383181286	7.121457548847721	-5.912844493485998	-3.62380025545419	6.462074175769638	-2.537934736284476	0.418836054021406	0.1045422138601344	-0.6632108582676826	13.34262464126306	2.994913817569882	-4.217917380374553
7.579999999999883	4.21296440140691e-09	8.002416233845703e-10	4.440363815649541e-10	-3.97872216927308e-17	8.44526185968539e-17	-7.30666612219483e-19	-0.5750047744361703	0.5754322615893847	-0.4712268341850306	-6.160785321059749	4.516864110942405	-5.075869434138992	-7.247964964743085	5.176268466764689	-5.91284444871921	-7.247964964743085	7.121480147414533	-5.91284444871921	-5.435973723557313	7.121480147414533	-5.91284444871921	-3.623982482371543	6.462094681910973	-2.537934717069496	0.4188359859505567	0.1045418851482989	-0.6632108552052147	13.3426224727683	2.994904400669457	-4.217917360897736
7.589999999999883	4.21296440140691e-09	8.002416233845703e-10	4.440363815649541e-10	-3.97872216927308e-17	8.44526185968539e-17	-7.30666612219483e-19	-0.5749839295609896	0.5754121088553515	-0.4712268301185654	-6.160561982390677	4.516705921756349	-5.075869390336634	-7.247702214011749	5.176087183981888	-5.91284439769415	-7.247702214011749	7.121230739612932	-5.91284439769415	-5.435776660508811	7.121230739612932	-5.91284439769415	-3.623851107005875	6.461868367044542	-2.537934695168317	0.4188360726412677	0.1045405244207332	-0.6632108479855366	13.34262523442552	2.994865418696164	-4.217917314981712
7.599999999999882	4.21296440140691e-09	8.002416233845703e-10	4.440363815649541e-10	-3.97872216927308e-17	8.44526185968539e-17	-7.30666612219483e-19	-0.5749054265032196	0.5754016679947024	-0.471226830667027	-6.159720875486056	4.516623966065122	-5.075869396244447	-7.246712678902412	5.175993263808564	-5.912844404576121	-7.246712678902412	7.12110152478297	-5.912844404576121	-5.435034509176807	7.12110152478297	-5.912844404576121	-3.623356339451206	6.461751116353923	-2.537934698122223	0.418836221516591	0.1045410899754094	-0.6632108442778043	13.34262997706299	2.994881620644178	-4.217917291401114
7.609999999999882	4.21296440140691e-09	8.002416233845703e-10	4.440363815649541e-10	-3.97872216927308e-17	8.44526185968539e-17	-7.30666612219483e-19	-0.5748609306338999	0.5754074343571625	-0.471226832193339	-6.159244132490622	4.516669229213168	-5.075869412685276	-7.246151806164924	5.176045134796974	-5.912844423727925	-7.246151806164924	7.121172888588103	-5.912844423727925	-5.434613854623692	7.121172888588103	-5.912844423727925	-3.623075903082462	6.461815872507992	-2.537934706342638	0.4188362662682948	0.1045423450091206	-0.6632108442648824	13.34263140269285	2.994917574711579	-4.217917291318932
7.619999999999882	4.21296440140691e-09	8.002416233845703e-10	4.440363815649541e-10	-3.97872216927308e-17	8.44526185968539e-17	-7.30666612219483e-19	-0.5748508435929068	0.5754277483196589	-0.4712268315290624	-6.159136056702653	4.516828683964449	-5.075869405529951	-7.246024658490737	5.176227867901327	-5.912844415392739	-7.246024658490737	7.121424291733687	-5.912844415392739	-5.434518493868053	7.121424291733687	-5.912844415392739	-3.623012329245368	6.462043997967371	-2.537934702764975	0.4188361991518572	0.1045442594741629	-0.6632108434286835	13.34262926460223	2.994972420095051	-4.217917286000839
7.629999999999882	4.21296440140691e-09	8.002416233845703e-10	4.440363815649541e-10	-3.97872216927308e-17	8.44526185968539e-17	-7.30666612219483e-19	-0.574768483518872	0.5754545903615538	-0.471226827789636	-6.158253624490414	4.517039380972231	-5.075869365250325	-7.244986505491603	5.176469323975861	-5.912844368471288	-7.244986505491603	7.121756485601197	-5.912844368471288	-5.433739879118702	7.121756485601197	-5.912844368471288	-3.622493252745802	6.462345433649305	-2.537934682625163	0.418836162240656	0.1045476498026729	-0.6632108356504379	13.34262808874285	2.995069545852448	-4.217917236532412
7.639999999999882	4.21296440140691e-09	8.002416233845703e-10	4.440363815649541e-10	-3.97872216927308e-17	8.44526185968539e-17	-7.30666612219483e-19	-0.5747464870737128	0.5754593524821329	-0.4712268276641037	-6.158017947531754	4.517076761308671	-5.075869363898142	-7.244709239161038	5.176512161363044	-5.912844366896137	-7.244709239161038	7.121815421030139	-5.912844366896137	-5.43353192937078	7.121815421030139	-5.912844366896137	-3.622354619580519	6.462398912183831	-2.537934681949071	0.4188361595596995	0.1045482954884687	-0.6632108347264677	13.34262800333713	2.995088043387943	-4.217917230656106
7.649999999999881	4.21296440140691e-09	8.002416233845703e-10	4.440363815649541e-10	-3.97872216927308e-17	8.44526185968539e-17	-7.30666612219483e-19	-0.5746877333118402	0.5754629553974748	-0.4712268216975364	-6.157388440908865	4.517105042446327	-5.075869299628634	-7.243968644949425	5.176544571184873	-5.912844292029043	-7.243968644949425	7.121860010275122	-5.912844292029043	-5.43297648371207	7.121860010275122	-5.912844292029043	-3.621984322474713	6.462439372862915	-2.537934649814317	0.4188361700795243	0.1045491926446891	-0.663210824677959	13.34262833846127	2.995113745020435	-4.217917166749163
7.659999999999881	4.21296440140691e-09	8.002416233845703e-10	4.440363815649541e-10	-3.97872216927308e-17	8.44526185968539e-17	-7.30666612219483e-19	-0.5745904864909003	0.5754722478301222	-0.4712268136105301	-6.156346507322216	4.517177983534847	-5.075869212518596	-7.242742843734476	5.176628160738854	-5.912844190555174	-7.242742843734476	7.121975012298882	-5.912844190555174	-5.432057132800856	7.121975012298882	-5.912844190555174	-3.621371421867238	6.462543726726266	-2.537934606259298	0.4188361755802436	0.1045508099744512	-0.6632108113467796	13.3426285136946	2.995160078105159	-4.217917081964944
7.669999999999881	4.21296440140691e-09	8.002416233845703e-10	4.440363815649541e-10	-3.97872216927308e-17	8.44526185968539e-17	-7.30666612219483e-19	-0.5744874948787184	0.5754826330050278	-0.4712268098076312	-6.155243022202214	4.517259502119999	-5.07586917155527	-7.241444629128366	5.17672157999421	-5.912844142837286	-7.241444629128366	7.1221035379688	-5.912844142837286	-5.431083471846274	7.1221035379688	-5.912844142837286	-3.620722314564183	6.46266035206691	-2.537934585777635	0.4188361848007236	0.1045524898783452	-0.6632108039983845	13.34262880742624	2.995208203806718	-4.2179170352303
7.679999999999881	4.21296440140691e-09	8.002416233845703e-10	4.440363815649541e-10	-3.97872216927308e-17	8.44526185968539e-17	-7.30666612219483e-19	-0.5744079370999635	0.5754944974423887	-0.4712268078459668	-6.154390614679145	4.517352632197839	-5.075869150424995	-7.240441799206381	5.176828305871584	-5.912844118222779	-7.240441799206381	7.122250370812158	-5.912844118222779	-5.430331349404787	7.122250370812158	-5.912844118222779	-3.62022089960319	6.462793589500219	-2.537934575212498	0.4188361706368973	0.1045541171024152	-0.6632108000117228	13.34262835621718	2.995254820342485	-4.217917009875756
